<svg version="1.1" id="Layer_1" xmlns="http://www.w3.org/2000/svg" xmlns:xlink="http://www.w3.org/1999/xlink" x="0px" y="0px"
	 width="100%" viewBox="0 0 1024 960" enable-background="new 0 0 1024 960" xml:space="preserve">
<path fill="#000000" opacity="1.000000" stroke="none" 
	d="
M440.199951,466.646881 
	C449.900970,465.764984 458.023529,469.260437 465.893158,473.353119 
	C477.410309,479.342712 489.123566,483.604706 502.544037,483.205994 
	C514.362488,482.854889 524.561218,478.634857 534.679688,473.411377 
	C541.826477,469.721985 549.190857,466.700378 557.426331,466.540863 
	C562.723145,466.438293 568.024780,466.579834 571.208435,471.674164 
	C574.448608,476.858795 572.699707,482.063354 570.085510,486.843506 
	C564.857117,496.403900 556.798706,503.401672 548.329285,509.966827 
	C541.880920,514.965271 534.704712,518.996704 528.757507,524.656677 
	C527.316223,526.028381 525.884827,527.441162 524.651733,528.995911 
	C517.855469,537.565430 518.321228,544.702698 526.204102,552.371338 
	C532.133301,558.139465 539.272278,562.132385 546.647827,565.657166 
	C559.958069,572.018127 573.681824,576.895569 588.739319,576.808411 
	C612.827209,576.668884 627.348083,559.954529 624.272766,535.965393 
	C621.888855,517.368652 613.005554,501.630524 602.637451,486.600098 
	C592.027405,471.218933 579.044373,457.681244 567.940308,442.674591 
	C551.734009,420.772461 543.396973,396.406067 544.683838,368.935730 
	C545.693848,347.375854 558.963013,331.569489 579.759155,326.596161 
	C596.833191,322.513000 613.775146,323.612152 630.809021,326.281555 
	C636.014648,327.097290 641.346252,327.330627 646.162537,329.425995 
	C646.518372,331.464386 645.002747,331.599365 644.073364,331.967957 
	C629.790405,337.633057 619.474670,348.239166 609.732605,359.527802 
	C600.336731,370.415253 589.457458,377.180176 574.267273,373.571899 
	C569.929871,372.541565 568.373718,374.630646 568.937012,379.164764 
	C570.761475,393.849731 578.734558,405.588898 587.261841,416.935791 
	C597.779419,430.931152 609.686768,443.781311 621.361938,456.810181 
	C622.938293,458.569305 624.497192,460.480682 627.284241,459.117645 
	C638.854492,453.459015 650.024841,447.256836 658.497681,437.161896 
	C669.273987,424.322327 668.498474,410.374084 662.763306,395.841248 
	C658.976379,386.245270 653.777466,377.233002 650.926697,367.258331 
	C650.336670,365.193695 649.881958,363.040649 649.748657,360.904419 
	C649.330139,354.197174 650.161499,353.538422 656.468201,351.411499 
	C693.785950,338.826355 726.594299,348.549530 756.745300,371.489807 
	C760.588196,374.413635 764.781433,377.066010 768.437256,382.315765 
	C761.211121,380.450684 755.530090,378.188568 749.523010,377.184540 
	C739.200317,375.459137 728.975342,375.601257 718.826538,378.295868 
	C717.057861,378.765472 714.985596,379.034882 714.589661,381.195129 
	C714.233093,383.140533 716.060059,384.016388 717.292908,385.070465 
	C734.463440,399.750793 749.984192,415.954193 762.968018,434.500885 
	C781.115234,460.423004 793.461304,488.838928 798.054626,520.192871 
	C804.124512,561.625122 796.929199,601.046570 778.196960,638.423889 
	C772.361023,650.068787 765.521790,661.097900 757.852539,671.617615 
	C756.918213,672.899292 756.228027,674.484131 754.220703,675.060547 
	C753.050781,672.186646 754.728516,669.990417 755.478638,667.822815 
	C762.036011,648.873474 766.857361,629.558289 769.058411,609.576111 
	C774.665588,558.670471 759.919128,514.868835 723.779785,478.410431 
	C716.634949,471.202454 709.116089,464.445160 701.209106,458.815521 
	C699.404663,459.128784 698.896667,460.057037 698.494690,460.942017 
	C692.014893,475.205414 681.196838,486.123047 670.541870,497.149231 
	C658.601562,509.505585 658.748352,509.402618 664.300476,525.279175 
	C669.412170,539.896179 672.109985,554.861328 668.929443,570.393616 
	C664.765686,590.727478 651.981018,604.241211 634.430603,613.899719 
	C629.771484,616.463745 624.852722,618.570923 619.983643,620.731201 
	C617.832458,621.685669 616.371948,622.747253 616.309509,625.414246 
	C615.778809,648.077698 604.350403,665.033203 587.953186,679.407776 
	C573.079407,692.446777 555.938782,702.182312 539.424316,712.818604 
	C527.222656,720.677307 515.019592,728.513794 504.623566,738.741272 
	C501.573608,741.741760 499.574707,741.627502 496.429626,738.671936 
	C479.053040,722.341980 458.142090,711.005554 438.355194,698.078003 
	C423.107025,688.115784 408.356445,677.574219 397.479492,662.544922 
	C390.066376,652.301758 385.835785,640.878845 384.709320,628.362122 
	C384.338593,624.242737 382.838287,621.657104 378.934692,620.033691 
	C372.940002,617.540771 367.170074,614.547729 361.675629,611.032288 
	C336.246399,594.761719 325.751617,568.957031 332.527832,539.423157 
	C334.322784,531.599915 336.752441,523.992981 339.996124,516.671753 
	C341.872131,512.437378 341.640503,509.177917 338.287262,505.465912 
	C329.026093,495.213959 318.710480,485.914948 310.565613,474.636292 
	C306.965912,469.651642 304.648346,463.905121 301.034088,458.707062 
	C294.762939,461.475739 290.435669,466.178741 285.802948,470.360168 
	C263.119415,490.834045 245.859100,514.874268 237.089264,544.557617 
	C227.860626,575.794006 229.494843,607.005432 236.699921,638.267883 
	C239.281815,649.470581 242.667984,660.436646 246.642426,671.222534 
	C247.088135,672.432007 247.925354,673.600281 247.128342,675.026001 
	C245.078247,675.519409 244.657043,673.694092 243.876938,672.615356 
	C223.585602,644.554749 209.544022,613.864502 203.480118,579.532043 
	C197.837387,547.584229 200.904099,516.555481 211.342041,486.075043 
	C224.307541,448.213745 247.439148,417.345978 277.043701,390.961670 
	C279.158295,389.077118 281.266327,387.180511 283.292389,385.202393 
	C287.028351,381.554810 286.538025,379.484406 281.380859,378.070404 
	C271.910461,375.473724 262.277893,375.649872 252.645782,376.964081 
	C246.266144,377.834473 240.224808,380.144135 234.131149,382.024567 
	C233.127060,379.924194 234.582138,379.249573 235.501923,378.447845 
	C256.357330,360.270020 279.688019,347.500549 307.972778,346.060638 
	C321.604126,345.366699 334.830109,347.795898 347.648987,352.502838 
	C350.496338,353.548370 351.291229,355.576538 351.304047,358.329315 
	C351.338348,365.700409 348.633026,372.323364 345.809753,378.919708 
	C342.797485,385.957703 339.376373,392.805115 336.825012,400.059052 
	C331.125031,416.265137 334.389099,430.234070 346.883667,441.922791 
	C354.489136,449.037750 363.287018,454.417694 372.827667,458.594055 
	C375.002838,459.546265 376.917664,459.793457 378.675049,457.766632 
	C395.671234,438.164581 414.337677,419.872833 426.577026,396.546936 
	C429.473816,391.026276 431.064575,385.075562 432.271271,379.023438 
	C433.082336,374.955414 431.046417,372.842896 426.952911,373.753021 
	C412.610046,376.942047 401.475037,371.546295 392.399841,360.920715 
	C382.034332,348.784485 371.076233,337.476624 355.784332,331.502197 
	C355.250244,331.293518 354.864624,330.704773 354.442871,330.323090 
	C355.143890,328.337921 356.763245,328.179443 358.169098,327.935974 
	C379.554993,324.232819 400.873169,321.511658 422.530029,326.756866 
	C439.125214,330.776154 452.998566,345.260620 455.338318,362.507477 
	C459.606934,393.972412 449.711151,421.301788 430.716949,445.841614 
	C421.134918,458.221252 410.978546,470.156128 401.383698,482.526215 
	C392.347595,494.175964 385.056091,506.930817 380.346863,520.928711 
	C377.057251,530.706787 374.959412,540.651794 377.351318,551.260010 
	C381.412262,569.270569 395.786133,575.987854 409.632751,576.645325 
	C428.798645,577.555542 445.865295,570.626831 462.135559,561.367004 
	C466.464172,558.903442 470.740082,556.286438 474.359650,552.748779 
	C483.168335,544.139648 483.201294,535.334900 474.463287,526.740051 
	C469.203339,521.566284 463.148010,517.436707 457.119781,513.264954 
	C448.018402,506.966553 439.720398,499.822540 433.287811,490.709259 
	C431.452179,488.108612 429.940430,485.324860 428.997162,482.276947 
	C426.112305,472.955536 429.874573,467.503967 440.199951,466.646881 
M469.516693,663.971252 
	C478.610809,670.139404 487.777283,676.204956 496.753387,682.540283 
	C499.327087,684.356812 501.271820,684.592529 503.896606,682.781433 
	C519.657043,671.907410 535.575928,661.261719 551.275085,650.300842 
	C558.778137,645.062378 566.185242,639.542664 571.361389,631.776855 
	C577.713013,622.247437 576.348755,614.682312 567.457947,607.391479 
	C561.869568,602.808777 555.586365,599.428650 549.198730,596.168274 
	C536.156921,589.511414 522.653992,583.689941 510.689178,575.067749 
	C507.453461,572.735962 504.488403,569.033508 500.950348,568.376343 
	C496.830475,567.611145 494.144745,572.477295 490.815796,574.811523 
	C477.638672,584.051208 462.885223,590.326233 448.739746,597.743896 
	C442.093628,601.228882 435.464966,604.737610 430.321259,610.417908 
	C424.827515,616.484741 424.098053,623.127136 428.347107,630.078552 
	C430.885590,634.231506 434.241425,637.684326 437.859955,640.936584 
	C447.442688,649.549194 458.347931,656.324768 469.516693,663.971252 
z"/>
<path fill="#000000" opacity="1.000000" stroke="none" 
	d="
M376.800354,189.208237 
	C365.704681,179.601974 354.298798,171.313812 339.400818,169.917542 
	C330.353638,169.069641 323.032135,172.462448 317.768677,179.770538 
	C310.164764,190.328156 308.094025,202.709412 307.386536,215.246140 
	C306.018524,239.487854 308.963562,263.418213 313.646606,287.165741 
	C315.222931,295.159027 316.461243,303.244995 318.559937,311.100006 
	C319.951355,316.307770 317.740723,317.392334 313.429138,318.135162 
	C293.189575,321.622314 274.275360,328.754089 256.682281,339.359222 
	C228.770737,356.184296 208.560257,380.067627 193.331451,408.515411 
	C186.712387,420.879974 181.285797,433.754852 176.677231,446.991791 
	C176.107605,448.627899 175.999664,450.645233 174.163132,451.585083 
	C172.789612,451.248108 172.798416,450.160278 172.761749,449.188995 
	C171.686966,420.725861 173.585876,392.656281 182.543228,365.310303 
	C192.755447,334.133179 210.653152,308.116302 234.359222,285.788757 
	C242.995010,277.655121 252.198624,270.243591 262.026672,263.629883 
	C264.852112,261.728546 265.867828,259.504822 265.824738,256.153687 
	C265.659821,243.322998 265.202423,230.461777 265.851624,217.662537 
	C266.971619,195.580353 270.531738,173.914886 281.050232,154.045395 
	C295.351746,127.029808 318.584351,117.233452 348.112274,125.476585 
	C370.072235,131.607010 388.551758,144.004959 406.339722,157.661911 
	C408.717560,159.487549 411.010651,161.423904 413.335419,163.318268 
	C424.012604,172.018723 424.011353,171.996475 437.451294,171.846527 
	C441.128143,171.805496 441.323608,169.962128 439.933136,167.311829 
	C428.795166,146.082489 412.914398,129.876221 390.396362,120.763512 
	C383.424988,117.942314 376.223846,115.948174 368.716400,115.161674 
	C367.577942,115.042404 366.344299,115.011749 365.800842,113.568497 
	C367.637878,111.468842 370.341522,111.722359 372.672058,111.145546 
	C392.295410,106.288734 412.205231,104.727997 432.148773,108.134529 
	C463.195770,113.437630 484.546112,131.339493 497.014740,160.089890 
	C497.674561,161.611267 498.385132,163.111923 499.122742,164.597031 
	C499.250916,164.855057 499.633240,164.986847 499.988922,165.242035 
	C502.475433,165.004227 502.832520,162.797409 503.572662,161.050522 
	C518.464478,125.902206 547.482483,106.787163 585.618652,106.538963 
	C600.204468,106.444038 614.532837,107.930374 628.705688,111.181572 
	C630.885803,111.681679 633.373230,111.612717 635.801941,114.373009 
	C608.676453,118.061203 586.794983,130.040375 570.741089,151.752060 
	C566.219299,157.867493 562.006287,164.209824 558.573730,172.848480 
	C567.876099,170.388672 576.472412,173.897659 584.133728,166.613113 
	C597.686829,153.726608 613.180359,143.216858 629.815979,134.531006 
	C639.771851,129.332794 650.218750,125.465439 661.317749,123.578186 
	C685.278625,119.503929 705.209961,128.865097 717.577820,149.862396 
	C726.529236,165.059448 730.677124,181.774246 733.243347,199.007950 
	C736.055664,217.893677 735.443604,236.893723 735.099609,255.874695 
	C735.034973,259.446075 736.117554,261.672852 739.063171,263.735901 
	C766.170898,282.721863 789.050049,305.680359 805.038147,334.972992 
	C818.074646,358.857758 825.235657,384.440704 827.435059,411.543823 
	C828.418823,423.666840 829.658875,435.738983 828.316895,447.900085 
	C828.191589,449.035950 828.461914,450.247437 827.417908,451.455048 
	C824.609741,450.498932 824.644775,447.644806 823.916016,445.546661 
	C814.760620,419.189575 802.226440,394.701324 784.071228,373.335449 
	C758.941895,343.762024 727.005554,325.842346 689.099243,318.312988 
	C681.289795,316.761780 681.116638,316.877411 682.856689,309.125610 
	C686.938232,290.942017 690.645325,272.641083 692.314819,254.112213 
	C694.238098,232.767822 696.270630,211.210297 688.764282,190.305130 
	C684.920898,179.601334 678.542236,171.557373 666.486694,169.881500 
	C660.201172,169.007751 654.312927,170.872742 648.523926,173.128113 
	C636.557678,177.790161 619.554565,191.165955 614.718567,200.047684 
	C617.644592,199.762100 619.989563,198.645554 622.360657,197.593094 
	C628.034058,195.074738 633.945801,193.243866 640.129578,192.799164 
	C654.968445,191.732056 663.277100,198.844421 665.366577,213.605011 
	C667.617859,229.508667 664.046997,244.721756 660.289062,259.913391 
	C659.076233,264.816406 658.297668,269.936798 655.709412,274.311646 
	C653.144714,274.327637 652.364685,272.440613 651.185608,271.130127 
	C639.019958,257.608215 626.476746,244.482132 611.667847,233.763214 
	C603.495056,227.847641 594.772278,222.880524 584.650146,221.422775 
	C571.996521,219.600464 561.536987,225.008820 552.082458,232.661713 
	C536.544800,245.238663 524.626526,261.182495 511.904358,276.368805 
	C509.122406,279.689575 506.219238,282.932068 503.711304,286.452423 
	C501.295044,289.844086 499.652222,289.273834 497.265076,286.356323 
	C485.977051,272.560211 475.054352,258.448303 462.735901,245.524567 
	C457.210449,239.727615 451.386810,234.274429 444.821075,229.621536 
	C430.295715,219.327927 415.383972,218.449371 399.811798,227.192581 
	C391.326630,231.956696 383.541473,237.655396 376.491577,244.293030 
	C367.152100,253.086349 357.928955,262.014587 349.627319,271.833313 
	C348.696594,272.934143 347.869202,274.333618 345.800629,274.276276 
	C345.496429,273.943237 344.840118,273.544983 344.675934,272.998779 
	C338.773438,253.359924 332.914459,233.695724 335.752136,212.777817 
	C336.290497,208.809128 337.525299,204.984009 339.619049,201.496216 
	C344.063080,194.093338 353.166199,190.961700 363.934692,193.073151 
	C371.475311,194.551712 378.438232,197.772568 386.947876,200.885513 
	C384.097778,195.547531 380.494751,192.566940 376.800354,189.208237 
z"/>
<path fill="#000000" opacity="1.000000" stroke="none" 
	d="
M686.116577,637.213684 
	C695.213379,618.396667 700.012695,598.777039 702.790771,578.530457 
	C704.381653,566.936340 704.932129,555.334656 704.792419,543.662964 
	C704.773682,542.095154 704.253906,540.320374 705.699646,538.902161 
	C707.820984,538.820679 707.839783,540.667358 708.328125,541.912903 
	C722.017273,576.825989 730.738281,612.689514 728.231934,650.536194 
	C726.018188,683.963318 713.689819,713.523438 693.036926,739.705383 
	C673.872375,764.000427 650.247375,783.451416 625.453735,801.627625 
	C601.270813,819.356201 576.028381,835.613831 552.373962,854.067139 
	C534.073059,868.344116 516.651794,883.571045 503.280823,902.830444 
	C501.492340,905.406433 499.897430,905.830505 497.958282,903.079346 
	C477.392731,873.902466 448.853210,853.586792 420.307343,833.294434 
	C390.446075,812.066895 359.713959,791.973938 332.939789,766.713379 
	C311.510712,746.495728 293.518829,723.768982 282.868988,695.928955 
	C276.950287,680.456665 273.641937,664.450806 272.583191,647.842163 
	C270.273041,611.601257 279.335449,577.551941 291.574188,544.038025 
	C292.179840,542.379578 292.717133,540.542175 294.628052,539.341248 
	C296.752655,540.692383 295.908264,542.875244 295.921997,544.646790 
	C296.110138,568.891479 298.804230,592.734314 306.251862,615.954956 
	C316.271698,647.195374 333.998077,673.320312 357.975281,695.447327 
	C374.938324,711.101440 393.869751,724.113220 413.030151,736.838074 
	C442.285126,756.266846 472.503723,774.431030 496.939117,800.231079 
	C499.263123,802.684814 501.282745,802.921875 503.653351,800.425781 
	C526.829834,776.022400 555.029541,758.204956 582.904053,739.948242 
	C607.027771,724.148315 631.010559,708.136292 651.236572,687.284424 
	C665.488220,672.591919 677.441223,656.265320 686.116577,637.213684 
z"/>
<path fill="#000000" opacity="1.000000" stroke="none" 
	d="
M473.545624,98.442444 
	C470.103210,96.699821 467.072235,94.902061 463.836029,93.623863 
	C460.005005,92.110725 460.351776,90.195633 462.757751,87.756798 
	C469.934906,80.481613 478.808319,76.443466 488.756775,75.034958 
	C503.025391,73.014801 517.055298,73.701820 529.861755,81.309059 
	C534.065857,83.806404 538.203064,86.632629 540.922729,91.941483 
	C523.021057,98.873322 509.265625,110.066582 500.539124,128.847641 
	C494.023254,115.213547 485.329498,105.609283 473.545624,98.442444 
z"/>
</svg>